<svg width="159" height="88" viewBox="0 0 159 88" fill="none" xmlns="http://www.w3.org/2000/svg">
<path d="M81.7424 0.982327C81.7424 1.97547 81.2458 2.90455 79.8682 4.57047C76.9368 8.1426 76.8567 9.64834 79.3396 14.5981C81.4861 18.827 81.7103 20.3487 80.7012 23.4243C80.0284 25.4746 80.0124 25.9232 80.541 26.4358C81.2618 27.1726 81.7424 26.8683 81.422 25.8751C81.3099 25.5387 81.2778 25.1222 81.3419 24.962C81.454 24.6897 81.4701 24.7058 81.6303 25.0261C81.7103 25.2344 82.1749 25.6829 82.6394 26.0353C84.2413 27.2527 84.834 29.5113 84.017 31.3695C83.8408 31.7859 83.7607 32.1223 83.8408 32.1223C84.2733 32.1223 86.5319 31.0811 87.5571 30.4244C89.0468 29.4633 90.8729 27.6852 91.786 26.3076L92.5068 25.2344L92.9553 25.5547C93.5961 26.0193 95.6144 26.8522 96.159 26.8843C96.4314 26.9003 96.6396 26.9804 96.6396 27.0445C96.6396 27.3168 95.5984 29.223 94.9096 30.2001C94.5091 30.7768 93.7082 31.7219 93.1315 32.3145L92.1064 33.4038H93.8043H95.5023L96.4634 32.0743C97.008 31.3534 97.809 30.0399 98.2575 29.1589L99.0904 27.557L100.628 27.541C102.598 27.509 104.04 27.1566 105.674 26.3236C107.772 25.2344 109.134 23.7126 109.871 21.6943C110.159 20.8613 110.207 19.2595 109.935 18.5867L109.743 18.1061L109.39 18.9871C108.493 21.1496 107.788 22.1748 106.331 23.4563C104.473 25.0902 102.358 25.795 99.4428 25.763C97.3604 25.747 95.5503 25.3305 93.9004 24.4975C93.2116 24.1611 93.1155 24.049 93.2116 23.7446C93.3878 23.152 93.484 23.152 94.6373 23.7126C96.4954 24.5936 97.5847 24.8179 99.9234 24.8339C101.814 24.8339 102.118 24.7858 103.207 24.3854C104.409 23.9529 105.594 23.1359 106.187 22.351C106.395 22.0787 106.267 22.1428 105.77 22.5593C104.248 23.8568 102.31 24.3854 99.619 24.2252C97.5366 24.1131 95.0698 23.3442 93.7883 22.4151C93.7563 22.3991 93.8524 21.8064 94.0126 21.1176C94.429 19.3395 94.397 16.6164 93.9325 14.7422C93.3238 12.1953 91.6899 9.36001 89.7677 7.48584C88.294 6.04418 84.5136 3.96177 83.6966 4.12196C83.5204 4.15399 83.3763 4.47436 83.2802 5.05103L83.104 5.93205L84.3374 6.42862C86.0834 7.13344 87.2367 7.85427 88.4702 9.05566C90.3123 10.8337 91.5617 13.0763 92.0583 15.4951C92.3146 16.7445 92.3787 19.3075 92.1544 20.1885L92.0423 20.6691L91.9302 20.0283C91.7059 18.843 91.1613 17.161 90.6647 16.1198C90.072 14.8864 88.4541 13.1884 86.3717 11.6026C85.3145 10.7857 84.898 10.3532 84.5937 9.71242C84.1131 8.76733 83.985 8.91149 83.985 10.3051C83.985 10.9458 84.1131 11.4745 84.3854 12.0671C84.866 13.1083 84.882 13.6049 84.4655 14.0214C84.0811 14.4058 83.0559 14.4539 82.3991 14.1015C81.7103 13.7491 80.8453 12.6598 80.6211 11.8589C80.2687 10.5774 80.4609 9.32797 81.3099 7.50186C82.319 5.3714 82.6394 3.83362 82.3831 2.37594C82.287 1.76723 82.0948 1.11047 81.9827 0.886215L81.7584 0.485752L81.7424 0.982327Z" fill="black"/>
<path d="M77.5777 3.6414C76.12 3.84964 73.8774 4.63455 72.4677 5.41946C71.0741 6.20436 68.8796 8.2227 67.8864 9.60029C65.3715 13.1564 64.5386 17.5134 65.5958 21.6783C65.804 22.5112 65.7239 22.5913 63.9779 23.3121C61.8635 24.2092 59.4767 24.4975 57.1861 24.1131C56.1289 23.9529 54.495 23.2641 54.0945 22.8156C53.9503 22.6394 53.7421 22.5112 53.662 22.5112C53.5659 22.5112 53.694 22.7195 53.9343 22.9758C54.5751 23.6485 56.0488 24.3854 57.3302 24.6897C59.6209 25.2344 63.3692 24.6897 65.3555 23.5204L66.0443 23.1199L66.2045 23.5524C66.3006 23.7927 66.3326 24.049 66.2846 24.1291C66.1244 24.3694 64.4905 25.0582 63.193 25.4266C61.3829 25.9392 58.5637 25.9392 56.9138 25.4266C54.9755 24.8019 53.8863 24.1771 52.6689 22.9277C51.6116 21.8545 50.8107 20.557 50.0258 18.5867L49.8336 18.1061L49.5933 18.6668C49.1928 19.6279 49.3851 21.1977 50.1059 22.6073C51.4835 25.3145 53.8863 26.8683 57.6826 27.477L58.836 27.6692L59.6369 29.207C60.0854 30.072 60.8703 31.3534 61.415 32.0743L62.3761 33.4038H64.074H65.772L64.6507 32.2184C64.026 31.5777 63.2411 30.6166 62.8887 30.104C62.1518 28.9987 61.3189 27.493 61.415 27.4289C61.447 27.3969 62.0557 27.2527 62.7605 27.1085C63.5294 26.9483 64.6507 26.5319 65.5477 26.0833C66.9574 25.3945 67.0695 25.3625 67.2297 25.6188C68.7354 28.1497 71.7789 30.7127 74.422 31.7219C75.9598 32.2985 76.0559 32.2665 75.6234 31.4335C75.3831 30.969 75.271 30.4724 75.271 29.7676C75.255 28.8866 75.303 28.7264 75.7836 28.1658C76.3763 27.477 77.0971 26.0994 77.0971 25.6669C77.0971 25.2183 77.3854 25.5067 77.5616 26.1154C77.6577 26.4998 77.6417 26.9003 77.5136 27.4289C77.2413 28.5021 77.4335 29.1909 78.1063 29.4793C78.6509 29.7035 79.0674 29.5914 79.2276 29.1589C79.2916 29.0308 79.1475 28.374 78.9392 27.7172C78.4106 26.1314 78.4427 25.5387 79.0353 24.2733C79.8683 22.5112 80.1406 21.502 80.1406 20.1885C80.1406 18.6508 79.7882 17.6095 78.3786 14.9024C77.7859 13.7491 77.1612 12.3875 77.001 11.8589C76.6966 10.9138 76.6966 10.8978 76.6165 11.4584C76.4564 12.5317 76.7607 14.4058 77.3534 16.1038C78.1864 18.5546 78.0262 19.5958 76.6165 20.5409C75.5433 21.2778 73.9895 20.8453 73.3808 19.6279C72.9803 18.843 73.0284 17.8018 73.5089 16.1038C74.0536 14.2296 74.0055 13.0923 73.3167 11.6186L72.8202 10.5774L72.5639 11.7628C72.1794 13.4287 71.3945 14.9345 69.8407 17.0008C68.5592 18.7148 67.8064 19.9963 67.8064 20.5089C67.8064 20.637 67.7423 20.7492 67.6622 20.7492C67.2137 20.7492 67.1976 16.7926 67.6462 15.0626C68.7514 10.7216 72.1634 7.21353 76.4564 6.02816C77.0971 5.83594 77.6898 5.64371 77.7539 5.57964C77.8179 5.49955 78.2344 5.00297 78.6829 4.44233C79.628 3.30501 79.6761 3.33705 77.5777 3.6414Z" fill="black"/>
<path d="M51.2432 15.2228C51.2913 15.5752 51.4675 16.3601 51.6437 16.9848C53.0693 21.9185 56.4332 24.2412 61.0786 23.4884C61.7033 23.3922 61.6072 23.3602 60.1976 23.2801C58.3554 23.168 56.6895 22.7034 55.6803 21.9986C55.2959 21.7423 54.9915 21.486 54.9915 21.422C54.9915 21.3579 55.1998 21.1817 55.4561 21.0375C56.0968 20.6851 56.257 19.8682 55.8565 19.0352C55.6323 18.5867 55.1838 18.1862 54.1906 17.5295C52.9572 16.7125 51.8839 15.7194 51.3553 14.8864C51.1791 14.6301 51.1631 14.6782 51.2432 15.2228Z" fill="black"/>
<path d="M108.077 14.9985C107.741 15.7354 106.972 16.4722 105.69 17.3052C104.153 18.3144 103.704 18.7789 103.528 19.5158C103.384 20.1725 103.72 21.0055 104.185 21.1497C104.585 21.2778 104.569 21.422 104.12 21.8385C103.288 22.6234 100.997 23.2961 98.9625 23.3282C97.4087 23.3602 98.3378 23.5845 100.116 23.6165C104.008 23.6646 106.844 21.1657 108.013 16.6164C108.205 15.8956 108.333 15.1427 108.301 14.9505C108.253 14.5981 108.253 14.5981 108.077 14.9985Z" fill="black"/>
<path d="M41.3758 15.2868C41.9525 15.7834 42.1768 15.8955 42.1768 15.6552C42.1768 15.431 41.6481 15.0305 41.2156 14.9184C40.8472 14.8062 40.8632 14.8543 41.3758 15.2868Z" fill="black"/>
<path d="M117.464 14.9346C117.143 15.0467 116.663 15.4792 116.663 15.6554C116.663 15.8796 116.887 15.7835 117.464 15.303C117.992 14.8545 117.992 14.7423 117.464 14.9346Z" fill="black"/>
<path d="M37.5956 15.3667C36.5864 15.687 35.2248 16.6642 34.52 17.5932C33.8633 18.4582 32.9662 20.4926 33.1264 20.7329C33.1745 20.813 33.4147 20.9251 33.6871 20.9892C34.3118 21.1333 35.1287 22.0784 35.1287 22.6711C35.1287 23.8885 34.2477 24.5132 33.591 23.7443C33.3827 23.5041 33.1905 23.3118 33.1585 23.3118C33.0143 23.3118 32.742 24.1929 32.6459 24.9297C32.5017 25.9068 32.9342 27.3005 33.655 28.1334L34.1997 28.7581H33.7351C33.3827 28.7581 33.2065 28.614 32.8541 28.0693C31.8129 26.3874 31.8289 24.1929 32.9182 23.0395C33.3827 22.543 33.655 22.575 33.7191 23.1036C33.7511 23.456 33.8472 23.5521 34.1676 23.5521C34.7122 23.5521 34.9846 22.8153 34.6482 22.2386C34.2317 21.5178 33.4308 21.1974 32.2134 21.2775C30.6115 21.3736 29.0097 22.4308 28.1126 23.9366C27.7122 24.6254 27.6801 24.8016 27.6801 26.5476C27.6801 28.2135 27.6481 28.4378 27.4078 28.4378C27.1996 28.4378 27.1195 28.2135 27.0394 27.4126C26.9753 26.8359 26.9593 26.2913 26.9913 26.1631C27.0394 26.051 26.735 25.5865 26.3185 25.1219C25.822 24.5933 25.5016 24.0487 25.3895 23.6002C24.973 21.9503 25.886 19.948 27.0394 19.948C27.1835 19.948 27.2797 20.0441 27.2316 20.1402C27.1035 20.4926 27.4398 20.9091 27.8243 20.9091C28.3689 20.9091 28.6092 20.5246 28.4971 19.8999C28.2408 18.5223 26.1744 17.9777 24.2361 18.7786C23.5473 19.0509 22.5702 19.98 22.0736 20.829C21.1285 22.4468 20.9363 25.2981 21.6572 27.1563C22.0576 28.2135 22.0576 28.1174 21.6732 28.1174C21.4649 28.1174 21.3208 27.9732 21.2567 27.7169C21.2086 27.4927 21.1285 27.3165 21.0965 27.3165C21.0645 27.3165 20.7121 27.4767 20.3116 27.6689L19.5908 28.0213L15.0735 27.733C5.6066 27.1563 4.77364 27.1883 3.02762 28.0533C2.06651 28.5339 0.945209 29.5751 0.528728 30.36C-0.0799759 31.5614 -0.0479388 32.0259 1.16947 38.2892C1.36169 39.2503 1.7141 41.2686 1.98641 42.7743C2.24271 44.2641 2.54706 45.9941 2.69123 46.6188C2.81938 47.2275 3.10771 48.7493 3.33197 49.9827C3.66836 51.9049 4.35715 55.6693 5.63864 62.6373C6.11919 65.2003 6.98419 66.9783 8.31373 68.1637C9.9316 69.5733 10.5243 69.6054 22.8746 68.8044C25.6137 68.6282 28.1607 68.452 28.5611 68.404C30.6916 68.1477 41.6162 67.6511 46.9023 67.571L53.0054 67.4749L53.55 67.9555C53.8544 68.2118 55.6324 69.5733 57.4746 70.983C59.3327 72.3926 61.7355 74.2507 62.8408 75.0997L64.8431 76.6535L65.6921 75.6924C66.1726 75.1638 66.6372 74.7313 66.7493 74.7313C66.8614 74.7313 67.7745 75.5803 68.7676 76.6055C73.6853 81.7154 75.0789 83.157 77.1453 85.2555C78.3787 86.5209 79.4199 87.5461 79.484 87.5301C79.5321 87.5301 80.3811 86.4729 81.3422 85.1754L83.1202 82.8206L83.9372 82.6925C84.7541 82.5643 84.7861 82.5323 87.5894 79.5208C89.1432 77.8549 90.4567 76.4933 90.5208 76.4933C90.6169 76.4933 92.0906 77.6627 94.7016 79.8092C95.2783 80.2737 95.8229 80.6581 95.903 80.6581C95.9991 80.6581 97.1204 79.4568 98.4019 77.9991C99.6834 76.5254 100.917 75.1798 101.141 74.9716C101.493 74.6832 101.862 74.6031 103.063 74.507C103.88 74.443 104.633 74.3468 104.729 74.2828C104.841 74.2187 105.706 73.2736 106.651 72.1683C107.597 71.0631 108.814 69.6694 109.359 69.0607C110.368 67.9394 110.704 67.4268 110.159 67.8433C109.999 67.9715 108.574 69.301 107.004 70.8068L104.137 73.5299L102.439 73.642L100.741 73.7542L99.4431 75.0837C98.7383 75.8206 97.633 76.9739 96.9762 77.6627C95.6147 79.1043 95.7108 79.0883 94.2691 77.7748L93.4201 77.0059L93.9007 75.9487C94.2851 75.0837 94.3973 74.6031 94.4773 73.2416C94.5254 72.3445 94.6215 71.3834 94.6696 71.1271C94.7657 70.5825 95.3744 70.0379 88.4704 76.6535C86.404 78.6238 83.9532 80.9945 83.0081 81.8916C82.079 82.8046 81.2781 83.5415 81.23 83.5415C81.166 83.5415 80.8296 83.2371 80.4772 82.8527C79.8685 82.228 78.9073 80.2256 79.0515 79.8732C79.0675 79.8092 79.5641 79.2325 80.1408 78.6078C80.9417 77.7268 81.3902 77.0219 82.095 75.5322C82.5916 74.475 82.9761 73.61 82.944 73.61C82.928 73.61 82.2232 74.0105 81.4062 74.491C80.5733 74.9716 79.7083 75.372 79.484 75.372C79.2437 75.372 78.1705 74.9235 77.0812 74.3789C75.992 73.8503 73.6853 72.777 71.9713 71.9921L68.8637 70.5985L66.9735 71.5436L65.0994 72.4887L62.8888 71.4635C61.6714 70.9029 59.9254 70.0859 58.9963 69.6534C58.0672 69.2209 56.6897 68.5802 55.9208 68.2438L54.5272 67.6031L55.4402 67.555C56.5775 67.4909 62.0879 67.7953 64.0422 68.0195C67.6143 68.452 71.4587 69.269 73.6212 70.0218C75.4313 70.6626 77.6098 71.9281 78.619 72.9532L79.5321 73.8503L79.9485 73.3537C82.6877 70.2141 89.3194 68.2598 99.1227 67.6831C107.693 67.1866 118.025 67.4909 135.084 68.7243C140.755 69.1408 147.419 69.4452 148.107 69.333C150.142 69.0287 151.679 67.6191 152.657 65.2323C153.041 64.2872 153.393 62.6533 154.226 57.9118C154.435 56.7265 154.691 55.3809 154.787 54.9484C154.883 54.4999 155.22 52.7058 155.524 50.9438C155.812 49.1818 156.213 47.0193 156.389 46.1382C156.549 45.2572 156.918 43.303 157.174 41.8132C157.43 40.3075 157.879 37.9368 158.151 36.5271C159.016 32.122 159.048 31.7856 158.728 30.9367C158.279 29.7673 157.142 28.63 155.748 27.9732L154.547 27.3966H152.064C150.702 27.3966 147.242 27.5407 144.375 27.7009L139.169 28.0053L138.496 27.6689C137.663 27.2364 137.695 27.2364 137.583 27.7169C137.519 27.9732 137.375 28.1174 137.167 28.1174C136.782 28.1174 136.782 28.2135 137.183 27.1563C137.663 25.9229 137.759 23.8565 137.407 22.5109C136.814 20.1722 135.405 18.7626 133.354 18.4262C132.505 18.282 131.32 18.5704 130.807 19.0349C130.359 19.4354 130.167 20.3324 130.439 20.6688C130.871 21.1814 131.817 20.7649 131.608 20.1402C131.56 20.0441 131.656 19.948 131.8 19.948C132.954 19.948 133.867 21.9503 133.45 23.6002C133.338 24.0487 133.018 24.5933 132.489 25.154C132.057 25.6345 131.752 26.0991 131.8 26.2112C131.865 26.3073 131.865 26.8359 131.8 27.4126C131.72 28.2135 131.64 28.4378 131.432 28.4378C131.192 28.4378 131.16 28.2135 131.16 26.5476C131.16 24.8016 131.128 24.6254 130.727 23.9366C129.83 22.4308 128.228 21.3736 126.627 21.2775C125.409 21.1974 124.608 21.5178 124.192 22.2386C123.855 22.8153 124.128 23.5521 124.672 23.5521C124.993 23.5521 125.089 23.456 125.121 23.1036C125.185 22.575 125.457 22.543 125.922 23.0395C127.011 24.1929 127.027 26.3874 125.986 28.0693C125.713 28.4858 125.425 28.7581 125.153 28.8062C124.929 28.8543 124.72 28.8703 124.688 28.8382C124.656 28.8062 124.88 28.4858 125.185 28.1334C125.89 27.3005 126.338 25.9229 126.194 24.9297C126.098 24.1929 125.826 23.3118 125.681 23.3118C125.649 23.3118 125.457 23.5041 125.249 23.7443C124.592 24.5132 123.711 23.8885 123.711 22.6711C123.711 22.0784 124.528 21.1333 125.153 20.9892C125.425 20.9251 125.665 20.813 125.713 20.7329C125.762 20.6688 125.617 20.1081 125.377 19.5154C124.32 16.8404 122.077 15.1424 119.594 15.1424C118.185 15.1424 117.144 15.9273 117.144 16.9845C117.144 17.5932 117.448 17.9136 117.977 17.8335C118.249 17.8015 118.361 17.6573 118.393 17.3369C118.537 16.1195 120.475 17.5131 120.828 19.099C120.988 19.7557 120.844 20.6367 120.411 21.694C120.171 22.3027 120.171 22.3988 120.507 23.3279C120.684 23.8725 120.876 24.7535 120.908 25.2661C120.94 25.7947 121.004 26.2593 121.036 26.2913C121.148 26.4034 122.045 24.1608 122.285 23.1517C122.446 22.4789 122.51 22.3668 122.558 22.6871C122.638 23.3759 122.013 25.6025 121.372 26.8519C120.572 28.4538 120.059 29.0785 119.514 29.0785H119.082L119.562 28.1494C120.78 25.7627 120.491 23.2478 118.777 21.3576C117.095 19.4994 114.196 19.4674 113.299 21.3095C112.915 22.1105 112.899 22.3347 113.235 22.7993C113.523 23.2157 114.276 23.2798 114.597 22.8954C114.773 22.6711 114.757 22.559 114.533 22.1745C114.276 21.71 114.276 21.694 114.661 21.5178C115.301 21.2294 116.182 21.5178 116.615 22.1585C117.704 23.7924 116.839 26.4515 114.789 27.765C112.851 28.9984 110.736 29.3188 105.434 29.1906L101.509 29.0785L101.077 30.3119C100.837 30.9847 100.693 31.5774 100.725 31.6255C100.901 31.8017 114.164 31.8337 118.265 31.6575C122.141 31.4973 132.425 30.9046 133.963 30.7605C134.267 30.7284 135.645 30.6323 137.007 30.5362C138.368 30.4561 140.675 30.2639 142.132 30.1357C148.3 29.5591 153.201 29.4149 154.323 29.7353C155.156 29.9916 155.972 30.7124 156.389 31.5454C156.725 32.2502 156.725 32.2822 156.469 33.5957C156.325 34.3326 156.037 35.9024 155.828 37.0878C155.62 38.2731 155.268 40.2594 155.027 41.4929C154.803 42.7263 154.355 45.097 154.066 46.779C153.762 48.4449 153.073 52.1932 152.544 55.1086C152 58.008 151.423 61.1476 151.247 62.0767C150.863 64.2231 150.526 65.1522 149.853 65.9371C148.924 67.0264 148.588 67.1225 146.217 67.0905C143.222 67.0424 137.455 66.658 128.757 65.9211C119.242 65.1042 115.173 64.9119 107.532 64.9119C101.461 64.8959 99.6033 64.944 97.4408 65.1682C88.8869 66.0813 83.6969 67.7312 80.333 70.5665L79.5 71.2553L78.8273 70.6306C77.6899 69.5893 77.0652 69.1729 75.5435 68.42C72.0835 66.69 68.3191 65.809 61.3991 65.0881C58.708 64.8158 44.3394 64.8158 40.8153 65.0881C39.4057 65.2003 36.3461 65.4405 34.0074 65.6007C31.6687 65.7769 28.0646 66.0493 25.9982 66.2255C18.2452 66.8662 13.3916 67.1705 11.6296 67.1065C9.73938 67.0424 8.65012 65.9692 8.05743 63.5824C7.88123 62.8936 7.41669 60.4428 7.01623 58.1521C6.59975 55.8615 6.19928 53.6669 6.11919 53.2665C6.02308 52.866 5.70271 51.136 5.41438 49.422C5.11002 47.708 4.51734 44.3922 4.06882 42.0535C2.16262 31.8017 2.24271 32.3783 2.53104 31.6895C2.88345 30.8566 3.34799 30.376 4.29308 29.9435C4.99789 29.6071 5.33428 29.5591 7.03225 29.5591C8.90641 29.5591 14.0484 29.8794 17.5084 30.1998C18.4374 30.2959 20.2796 30.4401 21.5931 30.5202C22.9226 30.6163 24.2842 30.7124 24.6366 30.7605C24.989 30.7925 26.5748 30.9046 28.1607 31.0007C29.7465 31.0808 31.4445 31.193 31.925 31.241C36.4422 31.6735 53.6141 31.9779 57.1862 31.6895L58.4997 31.5934L58.2114 31.0168C58.0352 30.6964 57.811 30.1357 57.6988 29.7513L57.5066 29.0625L53.566 29.1746C48.1518 29.3188 46.0053 28.9984 44.051 27.765C42.0007 26.4515 41.1357 23.7924 42.2249 22.1585C42.6574 21.5178 43.5384 21.2294 44.1792 21.5178C44.5636 21.694 44.5636 21.71 44.3073 22.1745C44.0831 22.559 44.0671 22.6711 44.2433 22.8954C44.5636 23.2798 45.3165 23.2157 45.6048 22.7993C45.9412 22.3347 45.9252 22.1105 45.5408 21.3095C44.6437 19.4674 41.7444 19.4994 40.0624 21.3576C38.3484 23.2478 38.0601 25.7627 39.2775 28.1494L39.7581 29.0785H39.3736C38.829 29.0785 38.2684 28.4218 37.5155 26.9481C36.8427 25.6185 36.202 23.3919 36.2821 22.6871C36.3301 22.3668 36.3942 22.4789 36.5544 23.1517C36.7947 24.1608 37.6917 26.4034 37.8038 26.2913C37.8359 26.2593 37.8999 25.7947 37.932 25.2661C37.964 24.7535 38.1562 23.8725 38.3324 23.3279L38.6688 22.3507L38.3324 21.4377C37.916 20.3324 37.8679 19.083 38.2203 18.4102C38.5727 17.7214 39.5498 16.9044 40.0144 16.9044C40.3027 16.9044 40.3988 17.0005 40.4469 17.3369C40.4789 17.6573 40.591 17.8015 40.8634 17.8335C42.1448 18.0257 41.9046 16.0715 40.575 15.3827C40.0144 15.0943 38.4926 15.0943 37.5956 15.3667ZM37.2752 18.9388C37.1471 19.4514 37.0509 20.0761 37.0509 20.3484C37.0349 20.829 37.0349 20.829 36.8747 20.4445C36.7146 20.0441 36.7786 19.5154 37.067 18.5383C37.3553 17.6573 37.4995 17.9777 37.2752 18.9388ZM121.773 18.5383C122.061 19.5154 122.125 20.0441 121.965 20.4445C121.805 20.829 121.805 20.829 121.789 20.3484C121.789 20.0761 121.693 19.4514 121.565 18.9388C121.34 17.9777 121.485 17.6573 121.773 18.5383ZM36.4262 19.2271L36.2821 19.8679L36.266 19.131C36.25 18.7305 36.2981 18.3461 36.3782 18.282C36.5704 18.0898 36.5864 18.5383 36.4262 19.2271ZM122.574 19.115C122.558 19.7878 122.542 19.8198 122.43 19.3873C122.253 18.6665 122.253 18.1539 122.43 18.266C122.526 18.3141 122.574 18.6985 122.574 19.115ZM24.8288 20.1402C24.7808 20.2523 24.5565 20.7809 24.3322 21.3095C23.9318 22.2546 23.9158 22.2546 23.9158 21.694C23.9158 21.3576 24.0439 20.9411 24.2361 20.7008C24.4123 20.4766 24.5565 20.2203 24.5565 20.1242C24.5565 20.028 24.6366 19.948 24.7327 19.948C24.8288 19.948 24.8769 20.0441 24.8288 20.1402ZM134.283 20.1242C134.283 20.2203 134.428 20.4766 134.604 20.7008C134.796 20.9411 134.924 21.3576 134.924 21.694C134.924 22.2546 134.908 22.2546 134.508 21.3095C134.283 20.7809 134.059 20.2523 134.011 20.1402C133.963 20.0441 134.011 19.948 134.107 19.948C134.203 19.948 134.283 20.028 134.283 20.1242ZM35.7054 22.575C35.8335 23.0876 35.7214 23.8084 35.5292 23.7604C35.353 23.7123 35.3049 22.1906 35.4811 22.1906C35.5452 22.1906 35.6413 22.3668 35.7054 22.575ZM123.471 22.9594C123.471 23.7924 123.183 24.1448 123.102 23.408C123.038 22.8793 123.183 22.1906 123.359 22.1906C123.423 22.1906 123.471 22.5269 123.471 22.9594ZM41.4721 22.623C41.456 22.7832 41.3759 23.0395 41.2959 23.1997C41.2318 23.3599 41.2158 23.8405 41.2478 24.289C41.3119 24.8496 41.2798 25.0418 41.1677 24.9297C40.9435 24.7055 40.9595 23.3439 41.1837 22.7832C41.392 22.3027 41.5682 22.2066 41.4721 22.623ZM117.768 23.1837C117.96 23.7604 117.864 24.8336 117.624 24.9938C117.56 25.0258 117.544 24.7055 117.592 24.273C117.624 23.8405 117.608 23.3599 117.544 23.1997C117.464 23.0395 117.384 22.7672 117.352 22.591C117.256 22.0944 117.56 22.5109 117.768 23.1837ZM31.4445 23.456C31.0921 23.9686 30.9639 24.0647 30.9639 23.8084C30.9639 23.6162 31.6207 22.7993 31.7168 22.8954C31.7648 22.9434 31.6367 23.1997 31.4445 23.456ZM127.876 23.8405C127.86 23.9526 127.684 23.8084 127.475 23.5521C126.963 22.9274 126.963 22.623 127.475 23.1997C127.7 23.44 127.876 23.7283 127.876 23.8405ZM35.369 24.7535C35.2889 24.8817 35.1928 24.8817 35.0967 24.7855C35.0006 24.6894 34.9846 24.5293 35.0486 24.4331C35.1287 24.305 35.2248 24.305 35.3209 24.4011C35.4171 24.4972 35.4331 24.6574 35.369 24.7535ZM123.791 24.7535C123.711 24.8817 123.615 24.8817 123.519 24.7855C123.423 24.6894 123.407 24.5293 123.471 24.4331C123.551 24.305 123.647 24.305 123.743 24.4011C123.839 24.4972 123.855 24.6574 123.791 24.7535ZM24.8929 26.1471C25.1332 26.7078 25.5336 27.4126 25.7739 27.7169C26.2224 28.3256 26.2064 28.5339 25.7259 28.3737C25.3094 28.2455 24.2842 26.0991 24.1721 25.138C24.0599 24.273 24.0119 24.2089 24.8929 26.1471ZM134.684 25.186C134.524 26.2913 133.402 28.4378 133.002 28.4378C132.585 28.4378 132.601 28.3417 133.066 27.733C133.514 27.1243 134.171 25.8588 134.428 25.0258C134.7 24.2089 134.828 24.273 134.684 25.186ZM30.8678 27.0121C30.9319 27.3806 31.0921 27.8931 31.2202 28.1494C31.4925 28.6781 31.4124 28.9023 31.06 28.614C30.8358 28.4218 30.4834 27.2684 30.4834 26.6918C30.4834 26.0991 30.7557 26.3393 30.8678 27.0121ZM128.357 26.6918C128.357 27.2684 128.004 28.4218 127.78 28.614C127.427 28.9023 127.347 28.6781 127.62 28.1494C127.748 27.8931 127.908 27.3806 127.972 27.0121C128.084 26.3393 128.357 26.0991 128.357 26.6918ZM36.0898 27.9572C36.4743 28.7261 36.5223 28.9183 36.3301 28.9183C36.0898 28.9183 35.4491 27.6849 35.4491 27.2204C35.4491 26.8199 35.5933 26.9801 36.0898 27.9572ZM43.3943 28.7101L44.019 29.2547L43.5384 29.1586C42.8977 29.0144 42.6254 28.7581 42.1128 27.749L41.6803 26.916L42.2249 27.5407C42.5293 27.8771 43.0579 28.4057 43.3943 28.7101ZM116.727 27.813C116.198 28.7581 115.654 29.2387 115.093 29.2387C114.725 29.2387 114.757 29.1906 115.414 28.6941C115.798 28.3897 116.311 27.8931 116.567 27.5728C117.176 26.7558 117.24 26.8519 116.727 27.813ZM123.086 28.1655C122.894 28.598 122.654 28.9183 122.51 28.9183C122.318 28.9183 122.366 28.7101 122.782 27.9092C123.359 26.7879 123.583 26.9961 123.086 28.1655Z" fill="black"/>
<path d="M42.3369 17.0649C42.3369 17.145 42.417 17.2251 42.4971 17.2251C42.5932 17.2251 42.6573 17.145 42.6573 17.0649C42.6573 16.9688 42.5932 16.9047 42.4971 16.9047C42.417 16.9047 42.3369 16.9688 42.3369 17.0649Z" fill="black"/>
<path d="M116.182 17.0649C116.182 17.145 116.262 17.2251 116.343 17.2251C116.439 17.2251 116.503 17.145 116.503 17.0649C116.503 16.9688 116.439 16.9047 116.343 16.9047C116.262 16.9047 116.182 16.9688 116.182 17.0649Z" fill="black"/>
<path d="M57.4906 20.1402C56.5135 21.0213 56.946 21.9503 58.5318 22.4149C60.1017 22.8954 62.969 22.6391 64.3626 21.9023L64.8431 21.646L64.2024 21.5499C63.85 21.5018 63.3855 21.3576 63.1772 21.2455C62.985 21.1334 62.6806 21.0693 62.5365 21.1174C62.3763 21.1494 62.168 21.0533 62.0559 20.8771C61.7516 20.3965 61.1268 20.2203 60.5822 20.4926C60.1497 20.7169 60.1017 20.7009 59.6211 20.2524C58.9804 19.6597 58.0833 19.6116 57.4906 20.1402Z" fill="black"/>
<path d="M100.02 20.2045C99.6511 20.5089 99.4428 20.589 99.1705 20.4929C98.5618 20.2846 97.857 20.4288 97.5366 20.7972C97.3764 20.9895 97.1201 21.1336 96.976 21.1016C96.8158 21.0856 96.4794 21.1657 96.2231 21.3098C95.9668 21.438 95.5664 21.5501 95.3261 21.5501C94.5572 21.5501 94.8295 21.7904 96.0469 22.2069C96.992 22.5272 97.5206 22.5913 98.9623 22.5913C101.413 22.5913 102.566 22.1108 102.566 21.0856C102.566 19.9002 101.013 19.3556 100.02 20.2045Z" fill="black"/>
<path d="M28.9775 20.4285C29.0096 21.1173 29.0256 21.1493 29.2178 20.9571C29.378 20.7969 29.2659 19.9479 29.0576 19.9479C29.0096 19.9479 28.9775 20.1562 28.9775 20.4285Z" fill="black"/>
<path d="M129.574 20.3484C129.462 20.7969 129.574 21.1333 129.798 20.9891C129.958 20.893 129.942 19.9479 129.782 19.9479C129.718 19.9479 129.622 20.1241 129.574 20.3484Z" fill="black"/>
<path d="M46.3416 21.9506C46.3416 22.0788 46.4056 22.1909 46.5017 22.1909C46.5818 22.1909 46.6139 22.0788 46.5658 21.9506C46.5017 21.8225 46.4377 21.7104 46.4056 21.7104C46.3736 21.7104 46.3416 21.8225 46.3416 21.9506Z" fill="black"/>
<path d="M112.274 21.9506C112.226 22.0788 112.258 22.1909 112.338 22.1909C112.434 22.1909 112.498 22.0788 112.498 21.9506C112.498 21.8225 112.466 21.7104 112.434 21.7104C112.402 21.7104 112.338 21.8225 112.274 21.9506Z" fill="black"/>
<path d="M53.0692 21.9343C53.0692 21.9664 53.1974 22.0945 53.3575 22.2066C53.5978 22.4149 53.6138 22.3989 53.4056 22.1426C53.1974 21.8863 53.0692 21.8062 53.0692 21.9343Z" fill="black"/>
<path d="M46.1813 22.9917C46.1813 23.0718 46.2614 23.1519 46.3575 23.1519C46.4376 23.1519 46.4696 23.0718 46.4216 22.9917C46.3735 22.8956 46.2934 22.8315 46.2453 22.8315C46.2133 22.8315 46.1813 22.8956 46.1813 22.9917Z" fill="black"/>
<path d="M112.418 22.9917C112.37 23.0718 112.402 23.1519 112.482 23.1519C112.578 23.1519 112.658 23.0718 112.658 22.9917C112.658 22.8956 112.626 22.8315 112.594 22.8315C112.546 22.8315 112.466 22.8956 112.418 22.9917Z" fill="black"/>
<path d="M19.7509 25.8268C19.7509 25.9069 19.9751 26.0831 20.2314 26.2273C20.7921 26.5477 20.8882 26.3394 20.3596 25.971C19.9751 25.6987 19.7509 25.6506 19.7509 25.8268Z" fill="black"/>
<path d="M138.48 25.971C138.288 26.0991 138.128 26.2913 138.128 26.3874C138.128 26.4836 138.256 26.4515 138.416 26.3074C138.576 26.1472 138.801 26.035 138.897 26.035C139.009 26.035 139.089 25.9549 139.089 25.8749C139.089 25.6506 138.897 25.6826 138.48 25.971Z" fill="black"/>
<path d="M4.93371 31.049C4.67741 31.1772 4.27695 31.4655 4.06871 31.6898C3.62019 32.1703 3.62019 32.1543 4.35704 35.6463C4.80556 37.7768 5.35019 40.9324 6.83991 49.9829C8.34565 59.0654 8.81019 61.4361 9.41889 63.4385C9.83537 64.752 10.1397 65.2646 10.7324 65.5849C11.1489 65.7932 14.5128 65.8092 17.3481 65.601C21.6731 65.2806 27.7601 64.784 29.1217 64.6399C37.227 63.7749 54.3188 63.2462 60.1175 63.6787C67.5181 64.2554 72.3396 65.2966 76.0079 67.1227C77.5777 67.9236 78.1383 68.26 78.9873 68.9969L79.5159 69.4614L80.1086 68.9969C81.6304 67.8275 84.4176 66.482 86.8684 65.7291C88.9028 65.1204 92.5069 64.3836 94.4772 64.1753C95.3582 64.0792 96.8319 63.919 97.761 63.8069C100.42 63.5025 114.196 63.5506 119.306 63.887C124.224 64.2074 127.171 64.4316 129.478 64.6399C130.407 64.7199 132.601 64.9122 134.363 65.0403C136.125 65.1845 138.368 65.3607 139.329 65.4568C142.517 65.7451 147.659 65.8412 148.219 65.601C149.164 65.2005 149.597 64.0151 150.558 59.1936C151.055 56.6306 152.913 45.6419 153.57 41.2208C153.714 40.2757 154.13 38.1132 154.499 36.4152C155.396 32.1543 155.396 32.0742 154.851 31.5616C154.05 30.8248 153.57 30.7767 149.036 30.9849C146.746 31.0811 143.59 31.2733 142.02 31.4014C122.285 33.0033 109.551 33.5479 101.782 33.0994C99.5551 32.9712 99.475 32.9712 98.9464 33.3236L98.4178 33.6761L99.0906 33.7882C100.837 34.0445 109.006 34.1886 113.459 34.0445C118.505 33.8843 125.874 33.4999 128.757 33.2436C129.734 33.1635 131.464 33.0513 132.601 33.0033C133.755 32.9552 134.828 32.8751 135.004 32.8431C135.389 32.763 138.176 32.5387 144.215 32.1223C149.453 31.7538 153.281 31.7058 153.906 31.9941C154.419 32.2344 154.419 32.3946 153.698 35.8866C153.153 38.5136 152.801 40.6121 151.103 50.944C149.196 62.4613 148.668 64.6399 147.643 64.8961C146.954 65.0724 139.505 64.6399 130.823 63.919C118.745 62.9099 114.372 62.6856 107.052 62.6696C100.18 62.6536 97.3285 62.8137 93.1637 63.4545C87.6533 64.3035 83.3283 65.7451 80.445 67.6994L79.548 68.2921L78.5708 67.6033C75.0147 65.1364 69.2961 63.5346 61.5592 62.8458C58.2433 62.5574 45.6528 62.6055 40.4948 62.9259C36.7625 63.1661 27.8882 63.871 26.0782 64.0792C22.6822 64.4476 11.9498 65.0403 11.3411 64.8961C10.6043 64.7039 9.97954 62.9259 9.3388 59.2736C9.1626 58.2965 8.87426 56.7107 8.69806 55.7496C8.32963 53.7152 7.72093 50.1111 7.1763 46.5389C6.7438 43.7357 6.26324 40.9645 5.81473 38.6098C5.12593 34.9095 4.67741 32.6989 4.59732 32.5868C4.48519 32.3946 4.99778 31.9781 5.54241 31.8499C6.39139 31.6257 16.2268 32.1223 21.0003 32.6028C22.458 32.763 30.0187 33.2756 38.7328 33.8202C45.5086 34.2527 60.5981 34.1886 60.5981 33.7401C60.5981 33.6761 60.3738 33.4999 60.1015 33.3397C59.6369 33.0673 59.3646 33.0513 57.0259 33.1474C53.3737 33.3236 46.4217 33.2916 41.9365 33.0834C37.211 32.8751 28.2727 32.2985 19.6707 31.6417C9.81936 30.8888 5.63852 30.7286 4.93371 31.049Z" fill="black"/>
<path d="M7.57672 32.7308C6.88793 33.0832 6.48746 33.756 6.27922 34.9734C6.13506 35.8224 6.18311 36.383 6.75978 39.9071C7.11218 42.1017 7.51265 44.7287 7.65681 45.7379C8.73006 53.3627 10.0436 60.3628 10.6843 61.8365C11.4532 63.5504 12.5104 64.3193 14.0963 64.3193C15.2816 64.3033 21.3206 63.7587 21.4327 63.6466C21.4808 63.5985 21.3687 62.8136 21.1764 61.9005C21.0002 60.9875 20.76 59.8021 20.6478 59.2735L20.4716 58.3124L17.9567 58.3604C15.3617 58.4245 14.9452 58.3444 14.6249 57.7517C14.4166 57.3673 13.4715 51.4885 13.1031 48.3008C12.9589 47.0193 12.7026 45.033 12.5425 43.8957C11.9978 40.0192 11.9818 39.7309 12.3663 39.3465C12.6866 39.0261 12.8628 39.0101 15.4418 39.0101H18.165L18.0689 38.2412C17.8446 36.6874 17.1878 32.875 17.1238 32.8109C17.0757 32.7629 10.2198 32.4585 8.61793 32.4425C8.36163 32.4425 7.88107 32.5706 7.57672 32.7308Z" fill="black"/>
<path d="M149.405 32.5546L147.787 32.6187L146.97 34.3327C146.521 35.2778 145.496 37.4083 144.679 39.0902L143.205 42.1337L142.853 40.3717C142.661 39.3946 142.34 37.7446 142.148 36.6874C141.956 35.6302 141.7 34.3327 141.604 33.8201L141.411 32.875L138.704 32.9871C137.215 33.0352 135.949 33.1153 135.917 33.1633C135.869 33.1954 135.485 35.9506 135.068 39.2824C133.306 52.9783 132.954 55.5733 132.441 58.793C132.153 60.6351 131.88 62.4132 131.848 62.7175L131.8 63.2782L132.841 63.3743C133.418 63.4383 134.539 63.5184 135.34 63.5825L136.814 63.6946L136.926 62.9258C136.974 62.4933 137.311 60.571 137.647 58.6328C137.983 56.6946 138.352 54.484 138.448 53.6991C138.56 52.9302 138.688 52.3055 138.752 52.3055C138.816 52.3055 138.961 52.722 139.073 53.2185C139.185 53.7311 139.393 54.7243 139.569 55.4291C139.729 56.1339 139.938 57.3193 140.05 58.0721C140.162 58.825 140.306 59.5298 140.354 59.642C140.45 59.8182 141.572 57.8959 143.734 53.8272C144.119 53.1224 144.455 52.5137 144.503 52.4657C144.535 52.4176 144.519 52.8181 144.455 53.3467C144.359 54.2758 144.199 55.1728 143.045 61.1637C142.661 63.134 142.549 64.0471 142.677 64.0791C142.949 64.1752 147.595 64.5116 147.643 64.4475C147.675 64.4315 148.091 62.4933 148.588 60.1546C149.693 54.9646 150.382 51.1521 152.064 41.0124C152.769 36.7034 153.393 33.0032 153.441 32.8109C153.553 32.3945 153.858 32.4265 149.405 32.5546Z" fill="black"/>
<path d="M25.2933 37.921C25.5817 48.8296 25.9981 59.5781 26.2544 62.1891L26.3505 63.1982H27.0233C27.4078 63.1982 28.3849 63.1502 29.2018 63.0861L30.6916 62.99L30.5794 61.7726C30.5314 61.0998 30.4353 59.9625 30.3712 59.2256L30.2751 57.9121H31.3163H32.3735L32.4696 58.665C32.5337 59.0975 32.6779 59.9305 32.806 60.5552C32.9181 61.1639 33.0623 61.9488 33.1104 62.2852L33.2225 62.8779L34.2156 62.7978C34.7603 62.7657 35.7694 62.6856 36.4582 62.6216L37.7077 62.5255L37.6116 61.7886C37.5475 61.3721 37.4033 60.4591 37.2752 59.7543C36.9067 57.7039 36.4262 54.0517 36.0898 50.864C35.401 44.3124 34.1996 35.7745 33.9113 35.31C33.8632 35.2299 31.893 35.1658 29.5222 35.1658H25.2292L25.2933 37.921ZM30.243 41.6053C30.2911 42.0698 30.4353 43.2071 30.5634 44.1362C30.6755 45.0653 30.8517 46.5069 30.9479 47.3399C31.044 48.1729 31.2362 49.7907 31.3804 50.912C31.5085 52.0494 31.5886 53.0745 31.5405 53.2027C31.4765 53.3789 31.2682 53.4269 30.8517 53.3949C30.3071 53.3469 30.243 53.2988 30.1469 52.7862C29.9867 51.9212 29.8426 40.7723 29.9867 40.7723C30.0668 40.7723 30.179 41.1568 30.243 41.6053Z" fill="black"/>
<path d="M121.372 35.2775L120.059 35.3416L119.963 36.1746C119.867 37.0075 119.594 39.7467 119.13 44.7765C118.857 47.82 118.041 55.8133 117.624 59.6737C117.48 61.1314 117.384 62.3649 117.448 62.4129C117.544 62.509 124.192 62.8935 125.633 62.8774H126.37L126.578 61.2275C126.691 60.3305 126.819 59.2573 126.867 58.8248L126.963 58.0719H124.928C123.295 58.0719 122.878 58.0238 122.814 57.8316C122.766 57.7035 122.798 57.1108 122.878 56.5181C122.974 55.9254 123.182 54.1474 123.327 52.5775L123.615 49.7423H125.81H128.02L128.116 49.2136C128.244 48.4448 128.517 45.8818 128.517 45.3692V44.9367H126.354H124.192L124.208 44.328C124.208 44.0076 124.304 43.0145 124.4 42.1335L124.592 40.5316L126.803 40.4836C128.356 40.4515 129.029 40.3874 129.077 40.2433C129.125 40.1311 129.286 38.9458 129.446 37.6002L129.734 35.1654L126.21 35.1974C124.256 35.2135 122.077 35.2615 121.372 35.2775Z" fill="black"/>
<path d="M40.9915 35.598C41.1356 36.2708 41.5521 42.3578 41.7764 47.1794C42.1608 55.5731 42.6253 61.9325 42.8656 62.1727C42.9137 62.2208 43.9389 62.2048 45.1403 62.1407L47.3348 62.0286L47.2387 61.1315C47.0625 59.5617 46.8382 55.8454 46.7261 52.6577C46.5979 49.1657 46.5499 49.2778 47.8954 49.8865C48.9687 50.3831 49.0167 50.6074 49.225 55.1246C49.3852 59.0011 49.4653 60.3146 49.6415 61.3878L49.7216 61.9164H51.5957C54.2708 61.9164 54.2388 61.9325 54.1106 60.7311C54.0626 60.2025 53.9504 57.7837 53.8703 55.3809C53.7742 52.866 53.6301 50.8637 53.534 50.6714C53.4378 50.4952 53.1175 50.0788 52.8131 49.7424L52.2525 49.1337L52.733 48.8453C53.7422 48.2526 53.7742 47.9964 53.566 42.6462C53.4539 40.0191 53.3257 37.7445 53.2777 37.5843C53.0534 36.9756 52.3486 36.2548 51.5797 35.8383L50.7467 35.4058L45.8291 35.3577C41.1677 35.3097 40.9274 35.3257 40.9915 35.598ZM48.392 40.9001C48.6323 41.1404 48.7124 41.5569 48.7925 42.7583C48.8566 43.7514 48.8405 44.4402 48.7284 44.6485C48.5202 45.0329 47.9435 45.2572 47.1586 45.2572H46.5499L46.4538 44.3281C46.3737 43.5752 46.2936 41.1725 46.3256 40.7239C46.3416 40.6599 46.7421 40.6118 47.2227 40.6118C47.8634 40.6118 48.1838 40.6919 48.392 40.9001Z" fill="black"/>
<path d="M110.383 35.438L109.15 35.502L109.07 36.1748C109.022 36.5432 108.942 37.5684 108.894 38.4494C108.846 39.3305 108.702 41.4129 108.573 43.0948C108.445 44.7607 108.189 48.0766 108.013 50.4633C107.837 52.8341 107.58 55.9737 107.452 57.4314C107.324 58.8891 107.196 60.5069 107.164 61.0355L107.132 61.9967L109.374 62.0768C110.608 62.1248 111.665 62.1248 111.713 62.0768C111.825 61.9967 112.29 57.4955 112.818 51.3443C113.331 45.4335 114.1 35.9345 114.1 35.6142C114.1 35.3098 113.811 35.2938 110.383 35.438Z" fill="black"/>
<path d="M59.0443 36.1588C59.1885 37.1359 59.3006 42.2618 59.3967 50.4633C59.4448 54.3398 59.5249 58.4245 59.5729 59.5458L59.6851 61.5962H62.0078H64.3144L64.2183 60.587C64.1382 59.674 64.0581 53.0263 64.1062 50.5274L64.1222 49.4542L66.7332 49.3901C69.0399 49.342 69.4083 49.294 70.001 48.9736C71.2184 48.3329 71.2504 48.1887 71.2985 43.0147C71.3305 40.5158 71.3145 38.2252 71.2504 37.9368C71.1223 37.2641 70.3534 36.367 69.5044 35.9185C68.8797 35.5821 68.6394 35.5661 63.8979 35.518L58.9642 35.47L59.0443 36.1588ZM66.2687 40.9643C66.4609 41.2206 66.525 41.7172 66.525 42.8225C66.525 44.1841 66.4929 44.3442 66.1245 44.6967C65.8202 45.017 65.5799 45.0971 64.9552 45.0971H64.1542L64.0902 44.168C64.0421 43.6715 64.0421 42.6623 64.0902 41.9254L64.1703 40.6119H65.0993C65.8682 40.6119 66.0604 40.676 66.2687 40.9643Z" fill="black"/>
<path d="M93.9967 35.5982C91.9463 35.6462 91.0973 35.7103 91.0012 35.8545C90.9371 35.9506 90.8731 37.0398 90.8731 38.2572C90.8731 39.4586 90.809 41.8774 90.7129 43.6234C90.6328 45.3534 90.4886 48.477 90.3925 50.5434C90.2964 52.6098 90.1522 55.8776 90.0401 57.7998C89.944 59.8502 89.928 61.3559 90.0081 61.436C90.0882 61.5161 92.1065 61.5962 94.4933 61.6122C98.626 61.6443 98.8663 61.6282 99.6192 61.2919C100.052 61.0996 100.676 60.6832 100.997 60.3628C101.91 59.4657 101.798 60.4749 102.983 42.2298L103.223 38.3213L102.855 37.6005C102.118 36.1588 100.5 35.454 98.1134 35.5181C97.4407 35.5341 95.5825 35.5821 93.9967 35.5982ZM97.8571 40.7081C98.1455 41.1406 98.1134 42.422 97.5208 52.3856C97.3926 54.5 97.2805 56.3261 97.2805 56.4222C97.2805 56.9188 96.6558 57.2712 95.7587 57.2712H94.8777V56.4703C94.8777 55.7014 95.3903 45.5136 95.6146 41.9255L95.7107 40.2916H96.6558C97.4887 40.2916 97.6169 40.3396 97.8571 40.7081Z" fill="black"/>
<path d="M76.2481 45.3695C76.184 50.7357 76.0879 56.5344 76.0238 58.2644L75.9277 61.436H80.3488H84.786V59.2896V57.1591L83.8088 57.047C83.2642 56.9989 82.3512 56.9509 81.8065 56.9509H80.7813V55.381C80.7813 54.5 80.8294 52.8181 80.8935 51.6167L80.9896 49.4221H82.9599C84.7539 49.4221 84.9462 49.3901 85.1063 49.1178C85.1864 48.9416 85.2665 47.9324 85.2665 46.8752V44.937H83.1841H81.0857L81.1338 42.8065L81.1818 40.6921L83.2802 40.644L85.3787 40.5959L85.4748 38.8019C85.5388 37.8087 85.5869 36.7034 85.5869 36.319V35.6462H80.9736H76.3442L76.2481 45.3695Z" fill="black"/>
</svg>
